<svg xmlns="http://www.w3.org/2000/svg" xmlns:xlink="http://www.w3.org/1999/xlink" width="1080" zoomAndPan="magnify" viewBox="0 0 810 809.999993" height="1080" preserveAspectRatio="xMidYMid meet" version="1.0"><path fill="#2e569b" d="M 404.027344 81 C 225.179688 81 80.027344 226.152344 80.027344 405 C 80.027344 583.847656 225.179688 728.996094 404.027344 728.996094 C 582.875 728.996094 728.027344 583.847656 728.027344 405 C 728.027344 226.152344 583.199219 81 404.027344 81 Z M 501.226562 477.25 L 407.269531 531.359375 C 395.605469 538.164062 382.644531 541.402344 370.007812 541.402344 C 357.046875 541.402344 344.414062 538.164062 332.75 531.359375 C 309.417969 517.75 295.488281 493.773438 295.488281 466.558594 L 295.488281 358.019531 C 295.488281 331.128906 309.417969 306.828125 332.75 293.21875 C 356.074219 279.609375 383.941406 279.609375 407.59375 293.21875 L 501.550781 347.328125 C 524.878906 360.933594 538.8125 384.910156 538.8125 412.125 C 538.8125 439.34375 524.878906 463.644531 501.226562 477.25 Z M 501.226562 477.25 " fill-opacity="1" fill-rule="nonzero"/></svg>